<svg width="54" height="54" viewBox="0 0 54 54" fill="none" xmlns="http://www.w3.org/2000/svg">
<g id="carbon:user">
<path id="Vector" d="M27 6.75C28.6688 6.75 30.3001 7.24485 31.6876 8.17198C33.0752 9.0991 34.1566 10.4169 34.7952 11.9586C35.4338 13.5004 35.6009 15.1969 35.2754 16.8336C34.9498 18.4703 34.1462 19.9737 32.9662 21.1537C31.7862 22.3337 30.2828 23.1373 28.6461 23.4629C27.0094 23.7884 25.3129 23.6213 23.7711 22.9827C22.2294 22.3441 20.9116 21.2627 19.9845 19.8751C19.0574 18.4876 18.5625 16.8563 18.5625 15.1875C18.5625 12.9497 19.4514 10.8036 21.0338 9.22129C22.6161 7.63895 24.7622 6.75 27 6.75ZM27 3.375C24.6637 3.375 22.3799 4.06779 20.4373 5.36577C18.4948 6.66374 16.9807 8.5086 16.0867 10.6671C15.1926 12.8255 14.9587 15.2006 15.4145 17.492C15.8703 19.7834 16.9953 21.8882 18.6473 23.5402C20.2993 25.1922 22.4041 26.3172 24.6955 26.773C26.9869 27.2288 29.362 26.9949 31.5204 26.1008C33.6789 25.2068 35.5238 23.6927 36.8217 21.7502C38.1197 19.8076 38.8125 17.5238 38.8125 15.1875C38.8125 12.0546 37.568 9.05007 35.3527 6.8348C33.1374 4.61953 30.1329 3.375 27 3.375ZM43.875 50.625H40.5V42.1875C40.5 41.0795 40.2818 39.9823 39.8577 38.9586C39.4337 37.9349 38.8122 37.0048 38.0287 36.2213C37.2452 35.4378 36.3151 34.8163 35.2914 34.3923C34.2677 33.9682 33.1705 33.75 32.0625 33.75H21.9375C19.6997 33.75 17.5536 34.6389 15.9713 36.2213C14.3889 37.8036 13.5 39.9497 13.5 42.1875V50.625H10.125V42.1875C10.125 39.0546 11.3695 36.0501 13.5848 33.8348C15.8001 31.6195 18.8046 30.375 21.9375 30.375H32.0625C35.1954 30.375 38.1999 31.6195 40.4152 33.8348C42.6305 36.0501 43.875 39.0546 43.875 42.1875V50.625Z" fill="#EFEFE5" fill-opacity="0.3"/>
</g>
</svg>
